<svg width="14" height="14" viewBox="0 0 14 14" fill="none" xmlns="http://www.w3.org/2000/svg">
<path d="M9.82306 3.38125C10.0446 3.38125 10.2276 3.54584 10.2566 3.75938L10.2606 3.81875L10.2605 10.7021L11.8916 9.06441C12.0621 8.89316 12.3391 8.89252 12.5103 9.06298C12.666 9.21794 12.6807 9.46096 12.554 9.63253L12.5118 9.6817L10.1331 12.0714C10.1187 12.0855 10.1041 12.0983 10.0887 12.1101L10.1331 12.0714C10.1116 12.093 10.0885 12.1118 10.064 12.128C10.0555 12.1333 10.0467 12.1387 10.0376 12.1438C10.0292 12.1489 10.0207 12.1533 10.012 12.1575C10.0035 12.1612 9.99481 12.1651 9.98601 12.1686C9.97482 12.1734 9.96334 12.1774 9.95174 12.181C9.94491 12.1828 9.9379 12.1848 9.93083 12.1866C9.91823 12.19 9.90557 12.1926 9.89283 12.1947C9.88688 12.1954 9.88062 12.1962 9.87433 12.197C9.85996 12.199 9.84571 12.1999 9.83146 12.2002C9.82864 12.1999 9.82585 12.2 9.82306 12.2L9.81454 12.2002C9.80028 12.1999 9.78604 12.199 9.77186 12.1973L9.82306 12.2C9.79923 12.2 9.77584 12.198 9.75304 12.1944C9.74043 12.1926 9.72776 12.19 9.71522 12.1869C9.70858 12.1849 9.70193 12.183 9.69535 12.181C9.68281 12.1775 9.67035 12.1731 9.65807 12.1681C9.65134 12.165 9.64486 12.1622 9.63846 12.1592C9.62838 12.1549 9.61828 12.1497 9.60835 12.1441C9.5994 12.1387 9.59057 12.1333 9.58195 12.1276C9.57522 12.1235 9.56859 12.1189 9.56206 12.114L9.55739 12.1101C9.54199 12.0983 9.52739 12.0855 9.5137 12.0718L9.51292 12.0714L7.13422 9.6817C6.96376 9.51045 6.9644 9.23344 7.13565 9.06298C7.29133 8.90802 7.53442 8.89446 7.7054 9.02193L7.75437 9.06441L9.3855 10.7033L9.38556 3.81875C9.38556 3.57712 9.58144 3.38125 9.82306 3.38125ZM4.03147 1.79834L4.03999 1.7981C4.05425 1.79837 4.06849 1.79934 4.08267 1.801L4.03147 1.79834C4.0553 1.79834 4.07869 1.80024 4.10149 1.80391C4.11396 1.80562 4.12648 1.80819 4.13889 1.81132C4.14618 1.81346 4.15362 1.81555 4.16097 1.81782C4.17246 1.82106 4.18358 1.825 4.19455 1.8294C4.20249 1.83293 4.21052 1.83644 4.21843 1.84018C4.22782 1.84425 4.23707 1.84903 4.24618 1.85416C4.25398 1.85896 4.2617 1.86364 4.26926 1.86854C4.27704 1.87317 4.28483 1.87858 4.29247 1.88427L4.34161 1.92687L6.72031 4.31659C6.89077 4.48784 6.89013 4.76485 6.71888 4.93531C6.5632 5.09027 6.32012 5.10383 6.14914 4.97635L6.10017 4.93388L4.46858 3.29435L4.46897 10.1795C4.46897 10.4212 4.27309 10.617 4.03147 10.617C3.80998 10.617 3.62693 10.4525 3.59796 10.2389L3.59397 10.1795L3.59358 3.29493L1.96291 4.93388C1.80794 5.08956 1.56492 5.10424 1.39336 4.97756L1.34419 4.93531C1.18851 4.78035 1.17383 4.53733 1.30051 4.36576L1.34276 4.31659L3.72146 1.92687L3.74722 1.90325C3.75327 1.89807 3.75947 1.89306 3.76579 1.88822L3.72146 1.92687C3.74292 1.90531 3.76607 1.88645 3.79048 1.87031C3.799 1.865 3.80785 1.85958 3.81691 1.85448C3.82531 1.84941 3.83386 1.84497 3.84251 1.84082C3.85105 1.83704 3.85972 1.83323 3.86853 1.82969C3.87972 1.8249 3.89119 1.82085 3.90279 1.81729C3.90985 1.8154 3.91707 1.81338 3.92437 1.81154C3.93612 1.80832 3.948 1.80585 3.95995 1.80388C3.96713 1.80298 3.97418 1.802 3.98127 1.80119C3.99477 1.79933 4.00863 1.79839 4.02249 1.79811C4.02556 1.79837 4.02851 1.79834 4.03147 1.79834Z" fill="#F2C94C"/>
</svg>
